<?xml version="1.0" encoding="UTF-8" standalone="no"?>
<svg
   version="1.1"
   width="512"
   height="512"
   x="0"
   y="0"
   viewBox="0 0 512 512"
   style="enable-background:new 0 0 512 512"
   xml:space="preserve"
   class=""
   id="svg104"
   sodipodi:docname="315949ff623122869508aabcd20d62f0.svg"
   xmlns:inkscape="http://www.inkscape.org/namespaces/inkscape"
   xmlns:sodipodi="http://sodipodi.sourceforge.net/DTD/sodipodi-0.dtd"
   xmlns="http://www.w3.org/2000/svg"
   xmlns:svg="http://www.w3.org/2000/svg"><defs
     id="defs108" /><sodipodi:namedview
     id="namedview106"
     pagecolor="#ffffff"
     bordercolor="#666666"
     borderopacity="1.0"
     inkscape:showpageshadow="2"
     inkscape:pageopacity="0.0"
     inkscape:pagecheckerboard="0"
     inkscape:deskcolor="#d1d1d1" /><g
     id="g102"><g
       id="g100"><g
         id="g80"><g
           id="g68"><path
             d="m337.927 132.851c6.754-10.68 18.66-17.777 32.231-17.777 21.052 0 38.119 17.066 38.119 38.119 0 1.172-.061 2.33-.165 3.475 8.941-2.455 17.885-2.578 25.792-.224.054-1.077.082-2.161.082-3.251 0-35.252-28.577-63.829-63.829-63.829-20.657 0-39.012 9.822-50.678 25.04z"
             fill="#fed2a4"
             data-original="#fed2a4"
             id="path2" /><path
             d="m112.583 259.449c-1.202-2.222-2.229-4.482-3.089-6.754-17.945-3.094-31.6-18.724-31.6-37.552 0-21.052 17.066-38.119 38.119-38.119 10.607 0 20.199 4.336 27.109 11.328 1.547-6.344 4.605-12.102 9.261-16.758 1.725-1.725 3.607-3.22 5.606-4.512-11.223-9.81-25.9-15.767-41.977-15.767-35.252 0-63.829 28.577-63.829 63.829 0 25.162 14.564 46.914 35.718 57.31 5.771-6.535 14.523-11.175 24.682-13.005z"
             fill="#fed2a4"
             data-original="#fed2a4"
             id="path4" /><g
             id="g10"><path
               d="m286.195 194.086c7.795-3.176 17.378-1.521 26.858 3.924 3.131-25.437 16.638-44.568 32.826-44.568 11.918 0 22.375 10.378 28.316 25.999 1.511-1.868 3.134-3.688 4.88-5.443l-99.855-99.855c-2.053-2.053-5.402-1.917-7.321.262-21.106 23.963-26.114 57.128-15.066 85.479 13.247 1.001 24.484 14.828 29.362 34.202z"
               fill="#fb2b3a"
               data-original="#fb2b3a"
               id="path6" /><path
               d="m286.195 194.086c3.298-1.344 6.915-1.823 10.711-1.512-23.786-29.741-24.279-71.958-1.475-102.219l-16.212-16.212c-2.053-2.053-5.402-1.917-7.321.262-21.106 23.963-26.114 57.128-15.066 85.479 13.248 1.001 24.485 14.828 29.363 34.202z"
               fill="#e41f2d"
               data-original="#e41f2d"
               id="path8" /></g><g
             id="g20"><g
               id="g14"><path
                 d="m218.122 110.612c27.806-27.806 29.025-72.131 3.658-101.385-1.902-2.194-5.271-2.314-7.324-.261l-97.98 97.98c-2.053 2.053-1.933 5.421.261 7.324 29.254 25.367 73.579 24.148 101.385-3.658z"
                 fill="#fd4755"
                 data-original="#fd4755"
                 id="path12" /></g><g
               id="g18"><path
                 d="m135.265 91.501c-.64-.555-1.082-1.242-1.367-1.978l-17.423 17.423c-2.053 2.053-1.933 5.422.261 7.324 29.255 25.367 73.579 24.148 101.385-3.658 5.433-5.433 9.837-11.503 13.24-17.962-27.89 23.046-68.633 22.665-96.096-1.149z"
                 fill="#fb2b3a"
                 data-original="#fb2b3a"
                 id="path16" /></g></g><g
             id="g24"><path
               d="m94.995 317.482h78.361c-.002-.212-.016-.422-.016-.635 0-3.969.381-7.846 1.074-11.614v.001c-19.916-5.121-33.872-16.984-33.872-30.808 0-11.915 10.373-22.37 25.988-28.312-1.885-1.53-3.725-3.169-5.495-4.939-10.699-10.699-17.042-23.739-18.683-36.221-8.927-1.701-17.678-.185-24.544 5.033-13.406 10.189-15.171 31.071-5.225 49.462-16.814 3.029-29.788 13.744-31.735 28.032-1.537 11.269 4.132 22.231 14.147 30.001z"
               fill="#80d261"
               data-original="#80d261"
               class=""
               id="path22" /></g><g
             id="g36"><g
               fill="#017b4e"
               id="g30"><path
                 d="m275.048 312.614c-2.107-19.059-18.259-33.886-37.88-33.886-21.052 0-38.119 17.066-38.119 38.119 0 .213.013.423.016.635h72.501c1.266-1.608 2.431-3.234 3.482-4.868z"
                 fill="#017b4e"
                 data-original="#017b4e"
                 class=""
                 id="path26" /><path
                 d="m140.541 274.426c0 13.824 13.957 25.686 33.872 30.808 5.463-29.704 31.472-52.215 62.755-52.215 18.203 0 34.613 7.632 46.24 19.856.185-3.105.565-6.198 1.097-9.27-.657-1.04-1.298-2.101-1.923-3.183-15.423-26.713-14.932-55.869 1.096-65.123.813-.47 1.657-.862 2.517-1.212-5.066-20.122-16.992-34.261-30.906-34.261-11.918 0-22.375 10.378-28.316 25.999-1.55-1.915-3.212-3.783-5.009-5.579-21.603-21.603-52.756-25.476-69.581-8.651-16.826 16.826-12.952 47.978 8.651 69.581 1.77 1.77 3.61 3.409 5.495 4.939-15.615 5.941-25.988 16.396-25.988 28.311z"
                 fill="#017b4e"
                 data-original="#017b4e"
                 class=""
                 id="path28" /></g><g
               id="g34"><path
                 d="m140.541 274.426c0 13.824 13.957 25.686 33.872 30.808.989-5.376 2.646-10.516 4.891-15.329-4.026-4.63-6.304-9.894-6.304-15.478 0-10.155 7.535-19.25 19.428-25.393 2.94-1.519 3.461-5.467 1.119-7.805-.018-.018-.035-.035-.053-.053-21.603-21.603-25.476-52.756-8.651-69.581 3.318-3.318 7.199-5.818 11.448-7.549-16.327-5.52-33.082-3.276-43.907 7.549-16.826 16.826-12.952 47.978 8.651 69.581 1.77 1.77 3.61 3.409 5.495 4.939-15.616 5.941-25.989 16.396-25.989 28.311z"
                 fill="#026841"
                 data-original="#026841"
                 id="path32" /></g></g><path
             d="m434.639 239.732c1.885-1.53 3.725-3.169 5.495-4.939 21.603-21.603 25.476-52.756 8.651-69.581-16.826-16.826-47.978-12.953-69.581 8.651-1.797 1.797-3.459 3.664-5.009 5.579-5.941-15.621-16.398-25.999-28.316-25.999-16.188 0-29.695 19.131-32.826 44.568-10.526-6.046-21.186-7.44-29.375-2.712-16.028 9.254-16.518 38.41-1.096 65.123.622 1.077 1.261 2.133 1.914 3.168 2.521-14.545 8.917-28.549 19.208-40.34 2.036-2.333 5.622-2.468 7.812-.278l94.512 94.512h15.421c-.36-5.309-2.257-10.973-5.499-16.6 25.491-3.106 44.677-16.627 44.677-32.838 0-11.918-10.373-22.373-25.988-28.314z"
             fill="#68ca44"
             data-original="#68ca44"
             id="path38" /><g
             id="g46"><path
               d="m300.997 316.847c0 .213-.014.422-.016.635h105.048l-94.512-94.512c-2.19-2.19-5.775-2.055-7.812.278-12.47 14.288-19.226 31.824-20.287 49.636 10.885 11.448 17.579 26.919 17.579 43.963z"
               fill="#ffffff"
               data-original="#ffffff"
               id="path40" /><path
               d="m347.382 317.482h38.052c4.355-2.091 8.441-4.932 12.051-8.543l-62.155-62.155c-17.164 17.164-17.164 44.991 0 62.155 3.611 3.61 7.697 6.451 12.052 8.543z"
               fill="#fedf74"
               data-original="#fedf74"
               id="path42" /><path
               d="m347.406 317.482h16.476c-4.351-2.09-8.43-4.936-12.036-8.543-14.303-14.303-16.676-36.008-7.14-52.78l-9.375-9.375c-17.164 17.164-17.164 44.991 0 62.155 3.616 3.616 7.712 6.451 12.075 8.543z"
               fill="#fed402"
               data-original="#fed402"
               id="path44" /></g><g
             id="g50"><path
               d="m199.065 317.482c-.003-.212-.016-.422-.016-.635 0-21.052 17.066-38.119 38.119-38.119s38.119 17.066 38.119 38.119c0 .213-.013.423-.016.635h25.71c.002-.212.016-.422.016-.635 0-35.252-28.577-63.829-63.829-63.829s-63.829 28.577-63.829 63.829c0 .213.014.422.016.635z"
               fill="#fed2a4"
               data-original="#fed2a4"
               id="path48" /></g><g
             id="g54"><path
               d="m181.155 504.5h142.051c1.937 0 3.863-.36 5.653-1.1 69.96-28.885 120.059-96.107 124.116-175.489.29-5.684-4.3-10.43-9.991-10.43h-381.607c-5.691 0-10.281 4.746-9.991 10.43 4.057 79.382 54.156 146.603 124.116 175.489 1.79.74 3.716 1.1 5.653 1.1z"
               fill="#d8ecfe"
               data-original="#d8ecfe"
               class=""
               id="path52" /></g><g
             id="g58"><path
               d="m89.398 327.912c-.29-5.684 4.3-10.43 9.991-10.43h-38.012c-5.691 0-10.281 4.746-9.991 10.43 4.057 79.382 54.156 146.603 124.116 175.489 1.791.739 3.716 1.1 5.653 1.1h38.012c-1.937 0-3.863-.36-5.653-1.1-69.96-28.886-120.059-96.107-124.116-175.489z"
               fill="#c4e2ff"
               data-original="#c4e2ff"
               class=""
               id="path56" /></g><g
             id="g62"><path
               d="m442.984 317.482h-381.607c-5.691 0-10.281 4.746-9.991 10.43.641 12.538 2.433 24.771 5.268 36.599h391.054c2.835-11.828 4.627-24.061 5.268-36.599.29-5.684-4.301-10.43-9.992-10.43z"
               fill="#eaf6ff"
               data-original="#eaf6ff"
               class=""
               id="path60" /></g><g
             id="g66"><path
               d="m51.386 327.912c.641 12.538 2.433 24.771 5.268 36.599h38.012c-2.835-11.828-4.627-24.061-5.268-36.599-.29-5.684 4.3-10.43 9.991-10.43h-38.012c-5.691 0-10.281 4.746-9.991 10.43z"
               fill="#d8ecfe"
               data-original="#d8ecfe"
               class=""
               id="path64" /></g></g><g
           id="g78"><g
             id="g72"><path
               d="m378.421 53.371c2.421-.649 4.001-2.99 3.672-5.475-1.31-9.878-5.755-19.419-13.346-27.009-7.59-7.59-17.131-12.035-27.009-13.346-2.484-.33-4.826 1.251-5.475 3.671l-13.19 49.224c-.996 3.718 2.406 7.119 6.123 6.123z"
               fill="#fe9901"
               data-original="#fe9901"
               id="path70" /></g><g
             id="g76"><path
               d="m344.938 60.438 12.793-47.743c-5.037-2.701-10.462-4.419-15.993-5.153-2.484-.33-4.826 1.251-5.475 3.672l-13.19 49.224c-.996 3.718 2.406 7.119 6.123 6.123l15.611-4.183c-.08-.622-.048-1.275.131-1.94z"
               fill="#fb8801"
               data-original="#fb8801"
               id="path74" /></g></g></g><g
         id="g98"><path
           d="m292.231 159.683c-2.929 2.929-2.929 7.678 0 10.606 1.464 1.464 3.384 2.197 5.303 2.197s3.839-.732 5.303-2.197l8.059-8.059c2.929-2.929 2.929-7.678 0-10.606-2.929-2.929-7.678-2.929-10.606 0z"
           fill="#000000"
           data-original="#000000"
           class=""
           id="path82" /><path
           d="m283.653 136.694h11.396c4.142 0 7.5-3.358 7.5-7.5s-3.358-7.5-7.5-7.5h-11.396c-4.142 0-7.5 3.358-7.5 7.5s3.358 7.5 7.5 7.5z"
           fill="#000000"
           data-original="#000000"
           class=""
           id="path84" /><path
           d="m111.823 119.937c15.354 13.313 34.479 19.901 53.576 19.901 21.088-.001 42.141-8.036 58.027-23.922 30.271-30.271 32.037-79.292 4.021-111.602-2.266-2.613-5.548-4.182-9.006-4.305-3.465-.131-6.843 1.209-9.288 3.654l-22.456 22.456c-2.929 2.929-2.929 7.677 0 10.606 2.929 2.93 7.678 2.929 10.606 0l20.525-20.524c21.078 26.377 19.086 65.012-5.01 89.108-24.097 24.095-62.732 26.087-89.109 5.01l48.593-48.594c2.929-2.929 2.929-7.678 0-10.606-2.929-2.929-7.678-2.929-10.606 0l-50.525 50.525c-2.445 2.445-3.776 5.83-3.653 9.287s1.692 6.739 4.305 9.006z"
           fill="#000000"
           data-original="#000000"
           class=""
           id="path86" /><path
           d="m184.602 78.53c-2.929 2.929-2.929 7.678 0 10.606l7.188 7.188c1.464 1.464 3.384 2.197 5.303 2.197s3.839-.732 5.303-2.197c2.929-2.929 2.929-7.678 0-10.606l-7.188-7.188c-2.929-2.929-7.678-2.929-10.606 0z"
           fill="#000000"
           data-original="#000000"
           class=""
           id="path88" /><path
           d="m165.168 85.737c-4.142 0-7.5 3.358-7.5 7.5v10.165c0 4.142 3.358 7.5 7.5 7.5s7.5-3.358 7.5-7.5v-10.165c0-4.142-3.358-7.5-7.5-7.5z"
           fill="#000000"
           data-original="#000000"
           class=""
           id="path90" /><path
           d="m200.747 67.191h10.166c4.142 0 7.5-3.358 7.5-7.5s-3.358-7.5-7.5-7.5h-10.166c-4.142 0-7.5 3.358-7.5 7.5s3.358 7.5 7.5 7.5z"
           fill="#000000"
           data-original="#000000"
           class=""
           id="path92" /><path
           d="m442.984 309.982h-15.194c-.288-1.129-.61-2.26-.999-3.397 24.78-5.75 41.336-20.78 41.336-38.541 0-11.874-7.443-22.734-20.385-30.353 22.415-24.392 25.433-58.696 6.345-77.783-3.699-3.699-7.974-6.558-12.633-8.616-.319-12.006-3.651-23.751-9.697-34.081-2.092-3.575-6.687-4.777-10.261-2.684-3.575 2.092-4.776 6.686-2.684 10.261 4.065 6.946 6.577 14.708 7.386 22.721-3.517-.286-7.121-.22-10.764.195-2.72-22.575-21.981-40.131-45.277-40.131-12.903 0-24.559 5.397-32.863 14.038l-7.566-7.566c10.245-10.58 24.574-17.182 40.429-17.182 9.177 0 18.282 2.254 26.33 6.519 3.66 1.939 8.199.545 10.139-3.115s.545-8.199-3.115-10.139c-10.204-5.407-21.737-8.265-33.354-8.265-19.992 0-38.074 8.28-51.034 21.578l-34.6-34.601c-2.428-2.428-5.775-3.77-9.223-3.65-3.451.109-6.743 1.661-9.031 4.258-20.856 23.68-27.173 55.509-19.353 84.157-8.543 2.636-16.194 9.279-21.977 19.1-11.208-10.336-24.813-16.921-38.631-18.639-10.099-1.257-19.529.17-27.594 4.023-11.914-8.946-26.689-14.275-42.701-14.275-39.331 0-71.329 31.998-71.329 71.329 0 25.003 12.942 47.025 32.47 59.762-1.888 3.594-3.18 7.469-3.738 11.563-1.123 8.239.826 16.329 5.087 23.514h-17.126c-4.785 0-9.419 1.989-12.715 5.458-3.319 3.493-5.012 8.059-4.767 12.855 2.041 39.936 15.438 78.205 38.742 110.671 22.828 31.803 53.95 56.481 90.002 71.367 2.68 1.106 5.544 1.667 8.516 1.667h142.051c2.971 0 5.836-.561 8.516-1.667 36.052-14.885 67.174-39.563 90.002-71.367 23.304-32.466 36.701-70.736 38.742-110.671.245-4.796-1.448-9.362-4.767-12.855-3.296-3.469-7.93-5.458-12.715-5.458zm-72.826-187.408c16.225 0 29.535 12.687 30.549 28.66-7.443 2.732-14.724 6.886-21.387 12.405l-31.424-31.424c5.586-5.928 13.495-9.641 22.262-9.641zm-2.973 59.533c.954 2.509 3.176 4.316 5.827 4.74 2.649.421 5.325-.602 7.014-2.688 1.442-1.782 2.95-3.463 4.481-4.995 18.645-18.644 45.102-22.523 58.975-8.65 13.874 13.875 9.994 40.33-8.651 58.975-1.505 1.505-3.16 2.992-4.918 4.419-2.083 1.69-3.104 4.364-2.679 7.012s2.231 4.867 4.738 5.821c13.049 4.965 21.156 13.128 21.156 21.302 0 11.832-16.373 22.749-38.085 25.394-2.498.304-4.677 1.841-5.802 4.092s-1.046 4.916.21 7.097c1.046 1.816 1.904 3.606 2.59 5.356h-2.906l-47.257-47.257 42.563-42.563c2.929-2.929 2.929-7.678 0-10.606-2.929-2.929-7.678-2.929-10.606 0l-42.563 42.563-34.451-34.451c-2.503-2.503-5.956-3.863-9.509-3.75-3.548.121-6.921 1.725-9.256 4.4-6.576 7.535-11.668 15.899-15.317 24.716-2.659-7.428-4.016-14.809-3.902-21.595.093-5.538 1.333-15.454 8.593-19.645 2.09-1.207 4.556-1.803 7.282-1.803 4.363 0 9.391 1.528 14.607 4.524 2.18 1.252 4.841 1.329 7.088.205 2.248-1.124 3.784-3.298 4.091-5.792 2.665-21.655 13.577-37.984 25.381-37.984 8.177-.002 16.341 8.108 21.306 21.163zm19.145 126.284c-.876.572-1.772 1.102-2.685 1.591h-34.46c-3.074-1.646-5.962-3.757-8.551-6.346-12.395-12.395-13.979-31.568-4.755-45.696zm-149.162-37.162c-22.821 0-41.781 16.845-45.102 38.753h-10.793c3.399-27.831 27.161-49.463 55.895-49.463s52.496 21.632 55.895 49.463h-10.793c-3.321-21.909-22.281-38.753-45.102-38.753zm29.834 38.753h-59.667c3.126-13.587 15.311-23.753 29.833-23.753s26.708 10.166 29.834 23.753zm24.21-39.607c1.407-14.444 6.922-28.574 16.661-40.442l17.242 17.242c-13.861 18.628-13.49 44.569 1.109 62.807h-18.064c-1.445-15.053-7.594-28.745-16.948-39.607zm-15.384-189.017 65.035 65.035c-15.505 2.794-28.287 18.441-33.503 40.794-3.07-1.046-6.112-1.727-9.104-2.034-2.348-.24-4.65-.227-6.885.009-5.852-16.86-16.389-28.636-28.927-31.906-7.865-24.041-3.516-51.331 13.384-71.898zm-118.141 95.539c6.466-6.466 15.974-9.288 26.771-7.946 11.494 1.429 22.931 7.323 32.203 16.596 1.535 1.535 3.042 3.215 4.482 4.994 1.688 2.087 4.365 3.109 7.014 2.689 2.65-.423 4.873-2.231 5.827-4.74 4.965-13.055 13.129-21.165 21.306-21.165 8.913 0 17.312 9.314 22.04 23.197-8.49 6.228-13.261 16.971-13.492 30.664-.175 10.428 2.335 21.806 7.156 32.879-10.072-5.448-21.593-8.547-33.826-8.547-.083 0-.165.006-.248.006l-29.587-29.587c-2.929-2.929-7.678-2.929-10.606 0-2.929 2.929-2.929 7.678 0 10.606l21.536 21.536c-23.4 6.441-42.03 24.515-49.218 47.599-12.665-4.838-21.005-12.811-21.005-21.254 0-8.174 8.106-16.337 21.156-21.302 2.506-.954 4.313-3.173 4.738-5.821s-.596-5.321-2.679-7.012c-1.76-1.428-3.415-2.915-4.918-4.419-9.273-9.273-15.167-20.71-16.597-32.204-1.342-10.795 1.48-20.302 7.947-26.769zm-58.67 63.676c-8.202-5.498-13.623-14.835-13.623-25.43 0-16.883 13.736-30.619 30.619-30.619 7.141 0 13.706 2.47 18.918 6.584-.269 1.878-.439 3.795-.496 5.751-7.695.175-15.025 2.489-21.166 7.157-10.703 8.135-15.636 21.835-14.252 36.557zm14.895 26.258c2.367-.427 4.386-1.962 5.429-4.13 1.042-2.167.982-4.704-.162-6.819-8.332-15.406-7-32.196 3.166-39.923 3.876-2.947 8.594-4.292 13.627-4.217 2.676 11.609 8.71 22.83 17.451 32.333-12.941 7.618-20.383 18.479-20.383 30.352 0 15.251 12.216 28.479 31.356 35.556h-66.781c-6.725-5.948-10.405-13.648-9.337-21.488 1.447-10.617 11.509-19.12 25.634-21.664zm-54.228-51.688c0-31.06 25.269-56.329 56.329-56.329 11.003 0 21.273 3.18 29.956 8.658-2.458 2.654-4.543 5.579-6.232 8.739-6.917-4.235-15.036-6.687-23.724-6.687-25.154 0-45.619 20.464-45.619 45.619 0 18.368 10.916 34.229 26.599 41.453-3.835 1.819-7.314 4.032-10.345 6.594-16.161-9.911-26.964-27.74-26.964-48.047zm382.007 141.867h-70.691c-4.142 0-7.5 3.358-7.5 7.5s3.358 7.5 7.5 7.5h66.947c-6.081 20.753-15.641 40.42-28.409 58.208-21.193 29.525-50.081 52.434-83.541 66.249-.855.353-1.794.532-2.791.532h-142.051c-.997 0-1.936-.179-2.791-.532-33.46-13.815-62.348-36.724-83.541-66.25-12.768-17.788-22.328-37.455-28.409-58.208h268.586c4.142 0 7.5-3.358 7.5-7.5s-3.358-7.5-7.5-7.5h-272.33c-2.007-9.666-3.285-19.517-3.794-29.481-.042-.833.335-1.415.66-1.757.281-.295.893-.79 1.841-.79h381.607c.948 0 1.561.495 1.841.79.325.342.703.924.66 1.757-.509 9.965-1.787 19.816-3.794 29.482z"
           fill="#000000"
           data-original="#000000"
           class=""
           id="path94" /><path
           d="m327.845 74.242c1.091 0 2.196-.144 3.292-.437l49.225-13.189h.001c6.046-1.621 9.985-7.513 9.164-13.705-1.585-11.954-6.938-22.787-15.478-31.327s-19.372-13.892-31.326-15.477c-6.187-.815-12.083 3.118-13.706 9.166l-13.189 49.224c-1.169 4.365.04 8.878 3.235 12.074 2.394 2.393 5.527 3.671 8.782 3.671zm15.08-58.917c7.795 1.47 14.852 5.2 20.518 10.865 5.666 5.666 9.395 12.722 10.865 20.518l-42.87 11.487z"
           fill="#000000"
           data-original="#000000"
           class=""
           id="path96" /></g></g></g></svg>
